<?xml version="1.0" encoding="iso-8859-1"?>
<!-- Generator: Adobe Illustrator 19.0.0, SVG Export Plug-In . SVG Version: 6.00 Build 0)  -->
<svg version="1.1" id="Layer_1" xmlns="http://www.w3.org/2000/svg" xmlns:xlink="http://www.w3.org/1999/xlink" x="0px" y="0px"
	 viewBox="0 0 512.013 512.013" style="enable-background:new 0 0 512.013 512.013;" xml:space="preserve">
<g>
	<g>
		<g>
			<path d="M383.377,101.515l-21.333-85.333c-1.493-5.931-5.419-10.923-10.816-13.76c-5.397-2.816-11.776-3.2-17.451-1.024
				l-56.448,21.419v-1.472c0-11.797-9.536-21.333-21.333-21.333c-11.776,0-21.333,9.536-21.333,21.333v1.472L178.236,1.397
				c-5.675-2.176-12.053-1.792-17.451,1.024c-5.397,2.837-9.344,7.829-10.816,13.76l-21.333,85.333
				c-1.963,7.893,0.725,16.235,6.933,21.483l44.075,37.184c-19.669,46.656-30.315,100.928-30.315,158.976v10.069l34.539,32.213
				c46.549,29.888,97.131,30.016,146.432,0.213l32.363-20.544v-21.952c0-58.048-10.645-112.32-30.293-158.976l44.053-37.184
				C382.652,117.749,385.34,109.408,383.377,101.515z M234.662,85.344c-6.592,0-12.821,3.051-16.853,8.277
				c-6.208,8-11.925,16.576-17.323,25.451c-0.405,0.64-0.853,1.173-1.237,1.813l-26.005-21.931l12.309-49.152l49.109,18.645V85.344z
				 M312.764,120.885c-0.384-0.64-0.853-1.173-1.237-1.813c-5.419-8.875-11.115-17.451-17.323-25.451
				c-4.053-5.227-10.283-8.277-16.875-8.277V68.448l49.131-18.645l12.288,49.152L312.764,120.885z"/>
			<path d="M256.096,426.594c-33.344,0-66.261-10.176-97.131-30.443c-1.024-0.661-1.984-1.408-2.859-2.219l-6.763-6.336v16.235
				c0,59.648,47.851,108.181,106.667,108.181c58.795,0,106.667-48.533,106.667-108.181v-12.16l-9.899,6.272
				C321.12,417.058,288.395,426.594,256.096,426.594z"/>
		</g>
	</g>
</g>
</svg>
