<?xml version="1.0" encoding="iso-8859-1"?>
<!-- Generator: Adobe Illustrator 19.0.0, SVG Export Plug-In . SVG Version: 6.00 Build 0)  -->
<svg version="1.1" id="Layer_1" xmlns="http://www.w3.org/2000/svg" xmlns:xlink="http://www.w3.org/1999/xlink" x="0px" y="0px"
	 viewBox="0 0 509.83 509.83" style="enable-background:new 0 0 509.83 509.83;" xml:space="preserve">
<g>
	<g>
		<g>
			<path d="M359.469,275.822c-10.752-1.109-19.221-9.877-19.221-20.907c0-11.029,8.469-19.797,19.221-20.907
				c-8.405-42.069-41.579-75.243-83.648-83.648c-1.109,10.731-9.856,19.221-20.907,19.221c-11.051,0-19.797-8.491-20.907-19.221
				c-42.069,8.405-75.243,41.579-83.648,83.648c10.752,1.109,19.221,9.877,19.221,20.907c0,11.029-8.469,19.797-19.221,20.907
				c8.405,42.069,41.579,75.243,83.648,83.648c1.109-10.731,9.856-19.221,20.907-19.221c11.051,0,19.797,8.491,20.907,19.221
				C317.89,351.065,351.063,317.891,359.469,275.822z M297.581,276.249h-21.333v21.333c0,11.776-9.536,21.333-21.333,21.333
				c-11.797,0-21.333-9.557-21.333-21.333v-21.333h-21.333c-11.797,0-21.333-9.557-21.333-21.333
				c0-11.776,9.536-21.333,21.333-21.333h21.333v-21.333c0-11.776,9.536-21.333,21.333-21.333c11.797,0,21.333,9.557,21.333,21.333
				v21.333h21.333c11.797,0,21.333,9.557,21.333,21.333C318.914,266.691,309.378,276.249,297.581,276.249z"/>
			<path d="M402.541,233.58h107.285C499.522,109.441,400.386,10.305,276.247,0.001v107.285
				C341.506,116.694,393.133,168.321,402.541,233.58z"/>
			<path d="M233.579,107.289V0.003C109.44,10.307,10.304,109.443,0,233.582h107.285C116.693,168.323,168.32,116.697,233.579,107.289
				z"/>
			<path d="M402.545,276.249c-9.408,65.259-61.035,116.885-126.293,126.293v107.285c124.139-10.304,223.275-109.44,233.579-233.579
				H402.545z"/>
			<path d="M107.287,276.251H0.002c10.304,124.139,109.44,223.275,233.579,233.579V402.544
				C168.322,393.136,116.695,341.509,107.287,276.251z"/>
		</g>
	</g>
</g>
</svg>
